<?xml version="1.0" encoding="UTF-8"?>
<svg width="12px" height="12px" viewBox="0 0 12 12" version="1.1" xmlns="http://www.w3.org/2000/svg" xmlns:xlink="http://www.w3.org/1999/xlink">
    <title>切片</title>
    <g id="6、企业中心" stroke="none" stroke-width="1" fill="none" fill-rule="evenodd">
        <g id="简历库" transform="translate(-1053.000000, -1433.000000)" fill="#999999" fill-rule="nonzero">
            <g id="编组-3" transform="translate(671.000000, 1422.000000)">
                <g id="修改职位备份-2" transform="translate(388.000000, 17.000000) rotate(-180.000000) translate(-388.000000, -17.000000) translate(382.000000, 11.000000)">
                    <path d="M3.48,12 C3.224,12 3,11.7625442 3,11.4911661 C3,11.355477 3.06400001,11.219788 3.12800001,11.1519435 L7.992,5.99575972 L3.12800001,0.839575975 C2.968,0.636042406 2.968,0.330742053 3.16000001,0.127208484 C3.35200001,-0.0424028281 3.64000001,-0.0424028281 3.80000001,0.127208484 L8.76,5.41908127 C9.08,5.75830388 9.08,6.30106008 8.76,6.60636043 L3.83200001,11.864311 C3.73600001,11.9660777 3.60800001,12 3.48,12 Z" id="路径" transform="translate(6.000000, 6.000000) rotate(-180.000000) translate(-6.000000, -6.000000) "></path>
                </g>
            </g>
        </g>
    </g>
</svg>