<?xml version="1.0" encoding="UTF-8"?>
<svg width="40px" height="40px" viewBox="0 0 40 40" version="1.1" xmlns="http://www.w3.org/2000/svg" xmlns:xlink="http://www.w3.org/1999/xlink">
    <title>编组备份 2</title>
    <g id="6_证书" stroke="none" stroke-width="1" fill="none" fill-rule="evenodd">
        <g id="剑桥商务英语BEC" transform="translate(-835.000000, -1111.000000)" fill="#FFFFFF" fill-rule="nonzero">
            <g id="编组备份-2" transform="translate(835.000000, 1111.000000)">
                <path d="M20,0 C9,0 0,9 0,20 C0,31 9,40 20,40 C31,40 40,31 40,20 C40,9 31,0 20,0 Z M20,38.3333333 C9.91666668,38.3333333 1.66666668,30.0833333 1.66666668,20 C1.66666668,9.91666668 9.91666668,1.66666668 20,1.66666668 C30.0833333,1.66666668 38.3333333,9.91666668 38.3333333,20 C38.3333333,30.0833333 30.0833333,38.3333333 20,38.3333333 Z" id="形状"></path>
                <path d="M26.25,17.25 L19.5833333,12.8333333 C17.3333333,11.3333333 15.4166667,12.3333333 15.4166667,15.0833333 L15.4166667,25.0833333 C15.4166667,27.8333333 17.25,28.8333333 19.5833333,27.3333333 L26.25,22.9166667 C28.5,21.25 28.5,18.75 26.25,17.25 Z" id="路径"></path>
            </g>
        </g>
    </g>
</svg>